<?xml version="1.0" encoding="utf-8"?>
<!-- Generator: Adobe Illustrator 27.5.0, SVG Export Plug-In . SVG Version: 6.00 Build 0)  -->
<svg version="1.1" id="Capa_1" xmlns="http://www.w3.org/2000/svg" xmlns:xlink="http://www.w3.org/1999/xlink" x="0px" y="0px"
	 viewBox="0 0 54.58 64.67" style="enable-background:new 0 0 54.58 64.67;" xml:space="preserve">
<style type="text/css">
	.st0{fill:#FFFFFF;}
	.st1{fill:#0069FF;}
</style>
<circle id="Elipse_186" class="st0" cx="14.33" cy="32.4" r="14"/>
<g>
	<path id="Trazado_4884" class="st1" d="M52.64,28.18L26.67,2.03c-2.23-2.16-5.78-2.16-8.01,0l-2.15,2.16c-2.15,2.26-2.15,5.8,0,8.06
	l16.01,16.12c2.15,2.26,2.15,5.8,0,8.06L16.52,52.56c-2.15,2.26-2.15,5.8,0,8.06l2.15,2.16c2.23,2.16,5.78,2.16,8.01,0l25.97-26.15
	C54.79,33.88,54.79,30.34,52.64,28.18z"/>
<path id="Trazado_4885" class="st1" d="M19.98,26.51c-3.25-3.14-8.44-3.05-11.58,0.2c-3.14,3.25-3.05,8.44,0.2,11.58
	c3.25,3.14,8.44,3.05,11.58-0.2c3.14-3.18,3.12-8.3-0.06-11.45C20.07,26.6,20.02,26.56,19.98,26.51z"/>
</g>
</svg>
