<?xml version="1.0" encoding="iso-8859-1"?>
<svg version="1.1" id="ic_gops" xmlns="http://www.w3.org/2000/svg" xmlns:xlink="http://www.w3.org/1999/xlink" x="0px" y="0px"
	 width="24" height="24" viewBox="0 0 1278 1000" style="enable-background:new 0 0 512 512;" xml:space="preserve">
  <path
          d="M869.393 516.064l-416.512 418.048c-35.84 34.56-92.544 34.56-128.384 0l-34.432-34.56c-34.432-36.096-34.432-92.8 0-128.896l256.768-257.664c34.432-36.096 34.432-92.8 0-128.896l-256.768-257.664c-34.432-36.096-34.432-92.8 0-128.896l34.432-34.56c35.84-34.56 92.544-34.56 128.384 0l416.512 417.92c34.56 38.528 34.56 96.768 0 135.168zM348.177 545.888c-51.2 49.408-132.736 48-182.144-3.2s-48-132.736 3.2-182.144c51.2-49.408 132.736-48 182.144 3.2 49.408 50.048 49.024 130.688-1.024 180.096-0.768 0.64-1.408 1.408-2.176 2.048z"
          fillRule="nonzero"
          fill="currentColor"
        />
</svg>
