<?xml version="1.0" encoding="utf-8"?>
<!-- Generator: Adobe Illustrator 27.5.0, SVG Export Plug-In . SVG Version: 6.00 Build 0)  -->
<svg version="1.1" id="Capa_1" xmlns="http://www.w3.org/2000/svg" xmlns:xlink="http://www.w3.org/1999/xlink" x="0px" y="0px"
	 viewBox="0 0 595.28 181.25" style="enable-background:new 0 0 595.28 181.25;" xml:space="preserve">
<style type="text/css">
	.st0{enable-background:new    ;}
	.st1{fill:#FFFFFF;}
</style>
<g id="Grupo_6270" transform="translate(-335.759 -77.415)">
	<g class="st0">
		<path class="st1" d="M504.48,182.58c-3.7,1.42-7.05,2.49-10.06,3.22c-3.01,0.73-5.83,1.09-8.47,1.09c-3.27,0-6.24-0.5-8.94-1.5
			c-2.69-1-5-2.43-6.9-4.28c-1.91-1.85-3.38-4.07-4.42-6.67c-1.04-2.6-1.56-5.47-1.56-8.61c0-3.11,0.53-5.95,1.59-8.53
			s2.57-4.77,4.51-6.58c1.95-1.81,4.28-3.21,6.99-4.22c2.71-1,5.74-1.5,9.09-1.5c4.96,0,9.95,0.63,14.99,1.89l-1.71,8.85
			c-2.99-0.51-5.45-0.88-7.38-1.09c-1.93-0.22-3.58-0.32-4.96-0.32c-1.89,0-3.61,0.28-5.16,0.83c-1.55,0.55-2.88,1.33-3.98,2.33
			c-1.1,1-1.96,2.21-2.57,3.63c-0.61,1.42-0.91,2.99-0.91,4.72c0,1.77,0.27,3.37,0.83,4.81c0.55,1.44,1.33,2.67,2.33,3.69
			s2.2,1.82,3.6,2.39c1.4,0.57,2.96,0.86,4.69,0.86c1.61,0,3.29-0.14,5.04-0.41c1.75-0.28,3.37-0.59,4.87-0.94v-5.78h-12.74v-8.14
			h21.24V182.58z"/>
		<path class="st1" d="M533.21,175.32h-19.53v-9.09h19.53V175.32z"/>
		<path class="st1" d="M580.64,182.58c-3.7,1.42-7.05,2.49-10.06,3.22c-3.01,0.73-5.83,1.09-8.47,1.09c-3.27,0-6.24-0.5-8.94-1.5
			c-2.69-1-5-2.43-6.9-4.28c-1.91-1.85-3.38-4.07-4.42-6.67c-1.04-2.6-1.56-5.47-1.56-8.61c0-3.11,0.53-5.95,1.59-8.53
			s2.57-4.77,4.51-6.58c1.95-1.81,4.28-3.21,6.99-4.22c2.71-1,5.74-1.5,9.09-1.5c4.96,0,9.95,0.63,14.99,1.89l-1.71,8.85
			c-2.99-0.51-5.45-0.88-7.38-1.09c-1.93-0.22-3.58-0.32-4.96-0.32c-1.89,0-3.61,0.28-5.16,0.83c-1.55,0.55-2.88,1.33-3.98,2.33
			c-1.1,1-1.96,2.21-2.57,3.63c-0.61,1.42-0.91,2.99-0.91,4.72c0,1.77,0.27,3.37,0.83,4.81c0.55,1.44,1.33,2.67,2.33,3.69
			s2.2,1.82,3.6,2.39c1.4,0.57,2.96,0.86,4.69,0.86c1.61,0,3.29-0.14,5.04-0.41c1.75-0.28,3.37-0.59,4.87-0.94v-5.78H559.4v-8.14
			h21.24V182.58z"/>
		<path class="st1" d="M597.28,186h-9.62v-41.89h9.62V186z"/>
		<path class="st1" d="M618.99,156.26c2.4,0,4.59,0.36,6.58,1.09c1.99,0.73,3.7,1.76,5.13,3.1c1.44,1.34,2.55,2.95,3.33,4.84
			s1.18,3.97,1.18,6.25c0,2.32-0.39,4.42-1.18,6.31c-0.79,1.89-1.9,3.51-3.33,4.87c-1.44,1.36-3.15,2.41-5.13,3.16
			c-1.99,0.75-4.18,1.12-6.58,1.12c-2.4,0-4.59-0.37-6.58-1.12c-1.99-0.75-3.7-1.8-5.13-3.16c-1.44-1.36-2.55-2.98-3.33-4.87
			c-0.79-1.89-1.18-3.99-1.18-6.31c0-2.28,0.39-4.37,1.18-6.25c0.79-1.89,1.9-3.5,3.33-4.84c1.44-1.34,3.15-2.37,5.13-3.1
			C614.4,156.63,616.6,156.26,618.99,156.26z M618.99,178.8c2.08,0,3.79-0.66,5.1-1.98c1.32-1.32,1.98-3.08,1.98-5.28
			c0-2.12-0.66-3.83-1.98-5.13c-1.32-1.3-3.02-1.95-5.1-1.95c-2.08,0-3.79,0.65-5.1,1.95c-1.32,1.3-1.98,3.01-1.98,5.13
			c0,2.2,0.66,3.96,1.98,5.28C615.21,178.14,616.91,178.8,618.99,178.8z"/>
		<path class="st1" d="M650.21,157.03c1.14-0.16,2.33-0.29,3.57-0.38c1.24-0.1,2.41-0.15,3.51-0.15c2.36,0,4.46,0.36,6.28,1.09
			s3.36,1.74,4.6,3.04s2.18,2.87,2.83,4.72c0.65,1.85,0.99,3.89,1.03,6.14c0,2.6-0.39,4.85-1.18,6.75
			c-0.79,1.91-1.83,3.49-3.13,4.75s-2.78,2.19-4.45,2.8c-1.67,0.61-3.39,0.91-5.16,0.91c-1.14,0-2.24-0.01-3.3-0.03
			c-1.06-0.02-2.23-0.07-3.51-0.15c-1.28-0.08-2.76-0.2-4.45-0.35c-1.69-0.16-3.76-0.37-6.2-0.65v-41.42h9.56V157.03z
			 M655.69,164.23c-0.67,0-1.5,0.04-2.48,0.12c-0.98,0.08-1.99,0.2-3.01,0.35v13.87c1.5,0.16,2.71,0.26,3.66,0.32
			c0.94,0.06,1.65,0.09,2.12,0.09c2.24,0,3.94-0.68,5.1-2.04c1.16-1.36,1.74-3.18,1.74-5.46c0-2.12-0.55-3.87-1.65-5.22
			C660.08,164.91,658.25,164.23,655.69,164.23z"/>
		<path class="st1" d="M690.27,156.5c1.34,0,2.58,0.03,3.72,0.09c1.14,0.06,2.34,0.15,3.6,0.26c1.26,0.12,2.66,0.27,4.22,0.44
			c1.55,0.18,3.41,0.38,5.58,0.62V186h-9.62v-1.95c-1.14,0.91-2.36,1.6-3.66,2.09s-2.83,0.74-4.6,0.74c-1.73,0-3.41-0.33-5.04-1
			c-1.63-0.67-3.08-1.65-4.34-2.95c-1.26-1.3-2.27-2.9-3.04-4.81c-0.77-1.91-1.15-4.1-1.15-6.58c0.04-2.24,0.4-4.29,1.09-6.14
			c0.69-1.85,1.64-3.43,2.86-4.75c1.22-1.32,2.7-2.34,4.45-3.07S688.06,156.5,690.27,156.5z M691.98,164.23
			c-2.36,0-4.08,0.7-5.16,2.09c-1.08,1.4-1.62,3.2-1.62,5.4c0,2.16,0.6,3.92,1.8,5.25c1.2,1.34,2.74,2.01,4.63,2.01
			c1.02,0,2.04-0.19,3.04-0.56s2.04-1.01,3.1-1.92v-11.98c-0.98-0.08-1.94-0.15-2.86-0.21C693.97,164.26,693,164.23,691.98,164.23z"
			/>
		<path class="st1" d="M724.25,186h-9.62v-41.89h9.62V186z"/>
		<path class="st1" d="M736.11,153.9c-1.65,0-3.04-0.53-4.16-1.59c-1.12-1.06-1.68-2.42-1.68-4.07c0-1.69,0.56-3.08,1.68-4.16
			c1.12-1.08,2.51-1.62,4.16-1.62c1.57,0,2.93,0.54,4.07,1.62c1.14,1.08,1.71,2.47,1.71,4.16c0,0.83-0.16,1.58-0.47,2.27
			c-0.32,0.69-0.74,1.28-1.27,1.77c-0.53,0.49-1.14,0.88-1.83,1.18C737.63,153.76,736.89,153.9,736.11,153.9z M740.89,186h-9.56
			v-28.62h9.56V186z"/>
		<path class="st1" d="M759.77,177.92h13.22V186h-26.61v-4.72l12.69-15.81h-12.57v-8.08h25.49v5.07L759.77,177.92z"/>
		<path class="st1" d="M790.68,156.5c1.34,0,2.58,0.03,3.72,0.09c1.14,0.06,2.34,0.15,3.6,0.26c1.26,0.12,2.67,0.27,4.22,0.44
			c1.55,0.18,3.41,0.38,5.58,0.62V186h-9.62v-1.95c-1.14,0.91-2.36,1.6-3.66,2.09s-2.83,0.74-4.6,0.74c-1.73,0-3.41-0.33-5.04-1
			c-1.63-0.67-3.08-1.65-4.34-2.95c-1.26-1.3-2.27-2.9-3.04-4.81c-0.77-1.91-1.15-4.1-1.15-6.58c0.04-2.24,0.4-4.29,1.09-6.14
			s1.64-3.43,2.86-4.75c1.22-1.32,2.7-2.34,4.45-3.07C786.5,156.86,788.48,156.5,790.68,156.5z M792.39,164.23
			c-2.36,0-4.08,0.7-5.16,2.09c-1.08,1.4-1.62,3.2-1.62,5.4c0,2.16,0.6,3.92,1.8,5.25c1.2,1.34,2.74,2.01,4.63,2.01
			c1.02,0,2.04-0.19,3.04-0.56s2.04-1.01,3.1-1.92v-11.98c-0.98-0.08-1.94-0.15-2.86-0.21
			C794.39,164.26,793.42,164.23,792.39,164.23z"/>
		<path class="st1" d="M837.76,185.7c-0.83,0.24-1.59,0.42-2.3,0.56c-0.71,0.14-1.41,0.25-2.09,0.35c-0.69,0.1-1.4,0.17-2.12,0.21
			c-0.73,0.04-1.54,0.06-2.45,0.06c-3.58,0-6.32-1.04-8.23-3.13c-1.91-2.08-2.86-5.09-2.86-9.03v-8.79h-5.49v-8.56h5.49v-9.73h9.56
			v9.73h8.79v8.56h-8.79v7.85c0,1.42,0.3,2.53,0.92,3.33c0.61,0.81,1.66,1.21,3.16,1.21c0.71,0,1.48-0.03,2.33-0.09
			c0.85-0.06,1.92-0.19,3.22-0.38L837.76,185.7z"/>
		<path class="st1" d="M846.97,153.9c-1.65,0-3.04-0.53-4.16-1.59c-1.12-1.06-1.68-2.42-1.68-4.07c0-1.69,0.56-3.08,1.68-4.16
			c1.12-1.08,2.51-1.62,4.16-1.62c1.57,0,2.93,0.54,4.07,1.62c1.14,1.08,1.71,2.47,1.71,4.16c0,0.83-0.16,1.58-0.47,2.27
			c-0.32,0.69-0.74,1.28-1.27,1.77c-0.53,0.49-1.14,0.88-1.83,1.18C848.49,153.76,847.75,153.9,846.97,153.9z M851.75,186h-9.56
			v-28.62h9.56V186z"/>
		<path class="st1" d="M873.1,156.26c2.4,0,4.59,0.36,6.58,1.09c1.99,0.73,3.7,1.76,5.13,3.1c1.44,1.34,2.55,2.95,3.33,4.84
			c0.79,1.89,1.18,3.97,1.18,6.25c0,2.32-0.39,4.42-1.18,6.31c-0.79,1.89-1.9,3.51-3.33,4.87c-1.44,1.36-3.15,2.41-5.13,3.16
			c-1.99,0.75-4.18,1.12-6.58,1.12c-2.4,0-4.59-0.37-6.58-1.12c-1.99-0.75-3.7-1.8-5.13-3.16c-1.44-1.36-2.55-2.98-3.33-4.87
			c-0.79-1.89-1.18-3.99-1.18-6.31c0-2.28,0.39-4.37,1.18-6.25c0.79-1.89,1.9-3.5,3.33-4.84c1.43-1.34,3.15-2.37,5.13-3.1
			C868.51,156.63,870.7,156.26,873.1,156.26z M873.1,178.8c2.08,0,3.79-0.66,5.1-1.98c1.32-1.32,1.98-3.08,1.98-5.28
			c0-2.12-0.66-3.83-1.98-5.13c-1.32-1.3-3.02-1.95-5.1-1.95s-3.79,0.65-5.1,1.95c-1.32,1.3-1.98,3.01-1.98,5.13
			c0,2.2,0.66,3.96,1.98,5.28C869.32,178.14,871.02,178.8,873.1,178.8z"/>
		<path class="st1" d="M912.75,156.5c1.77,0,3.37,0.27,4.81,0.8c1.44,0.53,2.67,1.28,3.69,2.24c1.02,0.96,1.81,2.12,2.36,3.48
			s0.83,2.86,0.83,4.51V186h-9.56v-15.63c0-1.81-0.46-3.13-1.39-3.95c-0.92-0.83-2.08-1.24-3.45-1.24c-0.79,0-1.65,0.03-2.6,0.09
			c-0.94,0.06-2.03,0.13-3.25,0.21V186h-9.56v-28.08c3.19-0.39,6.35-0.73,9.5-1C907.29,156.64,910.16,156.5,912.75,156.5z"/>
	</g>
	<g id="Grupo_5714" transform="translate(512.909 245.801) rotate(180)">
		<path id="Trazado_10" class="st1" d="M87.6,70.8l44.88-45c3.26-3.29,3.26-8.6,0-11.89l-3.12-3.12c-3.29-3.27-8.6-3.27-11.89,0
			l-29.9,29.87L57.68,10.79c-3.29-3.27-8.6-3.27-11.89,0l-3.12,3.12c-3.26,3.29-3.26,8.6,0,11.89L87.6,70.8z"/>
		<path id="Trazado_11" class="st1" d="M87.6,89.61l-44.88,44.88c-3.26,3.29-3.26,8.6,0,11.89l3.12,3.12c3.29,3.26,8.6,3.26,11.89,0
			l29.9-29.9l29.9,29.9c3.29,3.27,8.6,3.27,11.89,0l3.12-3.12c3.26-3.29,3.26-8.6,0-11.89L87.6,89.61z"/>
		<path id="Trazado_12" class="st1" d="M87.6,19.69c6.54-0.01,11.83-5.32,11.82-11.86C99.41,1.28,94.09-4.01,87.55-4
			C81.02-3.98,75.72,1.33,75.74,7.87c0.01,3.22,1.32,6.3,3.65,8.53C81.6,18.51,84.54,19.69,87.6,19.69z"/>
		<path id="Trazado_13" class="st1" d="M87.6,140.7c-6.54,0.01-11.83,5.32-11.82,11.86c0.01,6.54,5.32,11.83,11.86,11.82
			c6.54-0.01,11.83-5.32,11.82-11.86c-0.01-3.22-1.32-6.3-3.65-8.53C93.6,141.88,90.66,140.7,87.6,140.7z"/>
		<path id="Trazado_667" class="st1" d="M101.88,86.07l38.98,38.98c3.29,3.27,8.6,3.27,11.89,0l3.12-3.12
			c3.27-3.29,3.27-8.6,0-11.89l-23.93-23.93c-3.27-3.29-3.27-8.6,0-11.89l23.93-23.95c3.27-3.29,3.27-8.6,0-11.89l-3.12-3.12
			c-3.29-3.26-8.6-3.26-11.89,0l-38.98,38.98C98.65,77.53,98.65,82.79,101.88,86.07z"/>
		<circle id="Elipse_13" class="st1" cx="158.85" cy="80.25" r="11.87"/>
	</g>
</g>
</svg>
