<?xml version="1.0" encoding="iso-8859-1"?>
<svg version="1.1" id="ic_home" xmlns="http://www.w3.org/2000/svg" xmlns:xlink="http://www.w3.org/1999/xlink" x="0px" y="0px"
	 width="24" height="24" viewBox="0 0 1278 1000" style="enable-background:new 0 0 512 512;" xml:space="preserve">
  <path
          d="M 295.517 439.983 L 332.17 559.106 L 258.864 559.106 L 295.517 439.983 Z M 696.412 449.146 C 684.958 435.401 666.631 430.819 639.141 430.819 L 613.942 430.819 L 613.942 611.794 L 639.141 611.794 C 659.758 611.794 675.794 609.503 684.958 604.922 C 694.122 600.341 700.994 591.177 705.575 579.723 C 710.157 568.269 712.447 547.651 712.447 522.452 C 712.447 485.799 707.865 460.6 696.411 449.146 L 696.412 449.146 Z M 696.412 449.146 C 684.958 435.401 666.631 430.819 639.141 430.819 L 613.942 430.819 L 613.942 611.794 L 639.141 611.794 C 659.758 611.794 675.794 609.503 684.958 604.922 C 694.122 600.341 700.994 591.177 705.575 579.723 C 710.157 568.269 712.447 547.651 712.447 522.452 C 712.447 485.799 707.865 460.6 696.411 449.146 L 696.412 449.146 Z M 1149.996 64.287 L 639.141 64.287 L 510.855 -63.999 L 128.287 -63.999 C 57.271 -63.999 0.001 -6.728 0.001 64.287 L 0.001 831.714 C 0.001 902.73 57.272 960 128.287 960 L 1152.287 960 C 1223.303 960 1280.573 902.729 1280.573 831.714 L 1280.573 192.573 C 1278.282 121.557 1221.011 64.287 1149.996 64.287 Z M 368.823 685.102 L 352.787 630.122 L 235.955 630.122 L 219.919 685.102 L 116.832 685.102 L 240.537 352.932 L 352.788 352.932 L 478.784 685.102 L 368.824 685.102 L 368.823 685.102 Z M 804.081 600.341 C 794.918 620.958 785.754 636.994 769.719 650.739 C 755.974 664.484 739.938 673.647 723.902 678.229 C 700.994 685.101 680.376 687.392 662.05 687.392 L 510.855 687.392 L 510.855 352.931 L 664.34 352.931 C 694.121 352.931 719.32 357.513 737.646 364.385 C 755.973 373.548 772.008 385.002 783.463 398.747 C 794.917 414.783 804.08 430.819 808.662 451.436 C 813.244 472.053 817.825 492.671 817.825 515.579 C 815.534 554.523 813.243 582.013 804.08 600.34 L 804.081 600.341 Z M 1120.215 533.907 C 1099.598 552.234 1069.817 561.397 1028.582 561.397 L 971.311 561.397 L 971.311 685.102 L 870.515 685.102 L 870.515 352.932 L 1040.036 352.932 C 1076.689 352.932 1104.179 362.095 1122.506 380.422 C 1140.833 398.749 1149.996 423.948 1149.996 456.019 C 1152.287 490.381 1140.833 515.581 1120.215 533.907 Z M 1001.092 421.656 L 971.311 421.656 L 971.311 494.962 L 996.51 494.962 C 1017.127 494.962 1030.872 492.671 1037.745 485.799 C 1046.908 478.927 1049.199 469.763 1049.199 458.309 C 1049.199 446.855 1044.617 439.982 1037.745 430.819 C 1033.163 423.947 1021.709 421.656 1001.092 421.656 Z M 639.141 428.529 L 613.942 428.529 L 613.942 609.504 L 639.141 609.504 C 659.758 609.504 675.794 607.213 684.958 602.632 C 694.122 598.051 700.994 588.887 705.575 577.433 C 710.157 565.979 712.447 545.361 712.447 520.162 C 712.447 485.8 707.865 460.6 694.12 446.856 C 684.957 435.402 666.63 428.529 639.14 428.529 L 639.141 428.529 Z"
          fillRule="nonzero"
          fill="currentColor"
        />
</svg>
