<?xml version="1.0" encoding="iso-8859-1"?>
<svg version="1.1" id="ic_home" xmlns="http://www.w3.org/2000/svg" xmlns:xlink="http://www.w3.org/1999/xlink" x="0px" y="0px"
	 width="24" height="24" viewBox="0 0 1278 1000" style="enable-background:new 0 0 512 512;" xml:space="preserve">
  <path
          d="M 828.128 960.012 L 641.824 960.012 C 627.488 955.049 617.378 941.663 617.378 925.916 C 617.378 924.32 617.482 922.747 617.683 921.206 L 617.664 921.388 C 618.08 858.252 617.952 795.052 617.888 731.852 C 617.888 731.823 617.888 731.789 617.888 731.755 C 617.888 678.194 574.559 634.753 521.041 634.572 L 499.52 634.572 C 454.878 634.572 418.688 670.762 418.688 715.404 C 418.688 784.076 418.464 852.684 418.912 921.356 C 419.098 922.731 419.205 924.321 419.205 925.936 C 419.205 941.661 409.122 955.032 395.069 959.935 L 394.816 960.012 L 208.512 960.012 C 207.775 959.407 206.915 958.918 205.979 958.59 L 205.92 958.572 C 151.602 949.594 110.684 902.972 110.684 846.793 C 110.684 845.117 110.72 843.45 110.792 841.792 L 110.784 842.028 C 112.16 744.588 111.136 647.084 111.136 549.58 L 111.136 538.348 C 110.22 537.904 109.151 537.529 108.036 537.279 L 107.936 537.26 C 102.816 537.26 97.792 537.26 92.768 536.972 C 56.885 536.397 25.988 515.62 10.9 485.541 L 10.656 485.004 C 6.904 477.021 3.276 467.376 0.369 457.424 L 0 455.948 L 0 427.532 C 8.271 398.361 24.607 373.714 46.433 355.394 L 46.656 355.212 C 174.507 227.98 302.123 100.492 429.504 -27.252 C 452.239 -49.958 483.632 -64 518.304 -64 C 552.976 -64 584.369 -49.958 607.105 -27.25 L 607.104 -27.251 C 739.2 104.76 871.264 236.802 1003.296 368.877 C 1006.88 372.461 1010.496 376.077 1013.728 379.885 C 1027.903 396.404 1036.532 418.041 1036.532 441.695 C 1036.532 488.015 1003.44 526.607 959.607 535.116 L 959.008 535.213 C 949.367 536.63 937.797 537.662 926.069 538.077 L 925.504 538.093 L 925.504 550.413 C 925.504 650.861 925.792 751.373 925.216 851.917 C 923.863 900.819 891.031 941.699 846.321 955.107 L 845.536 955.309 C 839.776 956.973 833.952 958.509 828.128 959.917 L 828.128 960.012 Z"
          fillRule="nonzero"
          fill="currentColor"
        />
</svg>
