<?xml version="1.0" encoding="utf-8"?>
<!-- Generator: Adobe Illustrator 26.0.3, SVG Export Plug-In . SVG Version: 6.00 Build 0)  -->
<svg version="1.1" id="Layer_1" xmlns="http://www.w3.org/2000/svg" xmlns:xlink="http://www.w3.org/1999/xlink" x="0px" y="0px"
	 viewBox="0 0 252 144" style="enable-background:new 0 0 252 144;" xml:space="preserve">
<style type="text/css">
	.st0{fill:#0069FF;}
	.st1{fill:#003ECA;}
	.st2{fill:#231F20;}
</style>
<g>
	<g>
		<path class="st0" d="M34.1,64.6L20.8,51.3c-1.1-1.1-2.9-1.1-4.1,0l-1.1,1.1c-1.1,1.1-1.1,2.9,0,4.1l8.2,8.2c1.1,1.1,1.1,2.9,0,4.1
			l-8.2,8.2c-1.1,1.1-1.1,2.9,0,4.1l1.1,1.1c1.1,1.1,2.9,1.1,4.1,0l13.3-13.3C35.2,67.5,35.2,65.7,34.1,64.6z"/>
		<path class="st0" d="M17.4,63.7c-1.6-1.5-4.2-1.5-5.7,0.1c-1.5,1.6-1.5,4.2,0.1,5.7c1.6,1.5,4.2,1.5,5.7-0.1
			C19.1,67.8,19,65.2,17.4,63.7z"/>
		<path class="st1" d="M54.6,44l-1.1-1.1c-1.1-1.1-2.9-1.1-4.1,0L39.3,53.1v10.2l0,0l15.3-15.3C55.7,46.9,55.7,45.1,54.6,44z"/>
		<path class="st0" d="M29.1,42.9c-1.1-1.1-2.9-1.1-4.1,0L24,44c-1.1,1.1-1.1,2.9,0,4.1l15.3,15.3V53.1L29.1,42.9z"/>
		<path class="st0" d="M24,85.1c-1.1,1.1-1.1,2.9,0,4.1l1.1,1.1c1.1,1.1,2.9,1.1,4.1,0L39.3,80V69.8L24,85.1z"/>
		<path class="st1" d="M39.3,69.8V80l10.2,10.2c1.1,1.1,2.9,1.1,4.1,0l1.1-1.1c1.1-1.1,1.1-2.9,0-4.1L39.3,69.8z"/>
		<g>
			<path class="st0" d="M39.3,41.8v-4c-1.1,0-2.1,0.4-2.9,1.2c-1.5,1.6-1.5,4.2,0.1,5.7c0.8,0.8,1.8,1.1,2.8,1.1v-4V41.8z"/>
			<path class="st1" d="M42.1,39c-0.8-0.8-1.8-1.1-2.8-1.1v4V42v4c1.1,0,2.1-0.4,2.9-1.2C43.8,43.1,43.7,40.5,42.1,39z"/>
		</g>
		<g>
			<path class="st0" d="M39.3,91.2v-4c-1.1,0-2.1,0.4-2.9,1.2c-1.5,1.6-1.5,4.2,0.1,5.7c0.8,0.8,1.8,1.1,2.8,1.1v-4V91.2z"/>
			<path class="st1" d="M42.1,88.4c-0.8-0.8-1.8-1.1-2.8-1.1v4v0.2v4c1.1,0,2.1-0.4,2.9-1.2C43.8,92.5,43.7,89.9,42.1,88.4z"/>
		</g>
	</g>
	<g>
		<g>
			<path d="M105,63.8v6H94.9v-6H105z"/>
		</g>
		<path d="M165.3,59.1c3.7,0,6.7,1.1,9,3.3c2.3,2.2,3.4,5.1,3.4,8.6c0,3.6-1.1,6.5-3.4,8.8c-2.3,2.2-5.3,3.3-9,3.3
			c-3.7,0-6.8-1.1-9.1-3.3c-2.3-2.2-3.5-5.1-3.5-8.8c0-3.6,1.1-6.4,3.4-8.6C158.5,60.2,161.5,59.1,165.3,59.1z M171.4,71
			c0-1.9-0.6-3.3-1.7-4.5c-1.1-1.1-2.6-1.7-4.4-1.7c-1.8,0-3.3,0.6-4.5,1.7c-1.1,1.1-1.7,2.6-1.7,4.5c0,1.9,0.6,3.4,1.7,4.6
			c1.1,1.2,2.6,1.8,4.5,1.8c1.8,0,3.3-0.6,4.4-1.8C170.8,74.4,171.4,72.9,171.4,71z"/>
		<polygon points="143,82.7 149.5,82.7 149.5,50.1 143,50.5 		"/>
		<polygon points="235,82.7 241.4,82.7 241.4,50.1 235,50.5 		"/>
		<path d="M193.2,59.7L193.2,59.7l-5.7,0v-9.6l-6.4,0.4v30v1.8v0.8h12.7l0,0c0.1,0,0.3,0,0.4,0c3.1,0,5.7-1,7.6-3.1c2-2.1,3-5,3-8.7
			c0-3.6-1-6.5-3-8.5C199.7,60.7,196.9,59.7,193.2,59.7z M197,76.1c-1,1.2-2.5,1.7-4.4,1.7h-5.1V65h5.1c0.1,0,0,0,0,0
			c3.9,0.1,5.9,2.2,5.9,6.2C198.5,73.4,198,75,197,76.1z"/>
		<path d="M219.1,59.7c-3.4,0-6.1,0.9-8.1,2.9c-2,2.1-3,4.9-3,8.5c0,3.6,1,6.5,3,8.7c2,2.2,4.6,3.3,7.7,3.3c2.4,0,4.5-0.7,6.5-2.1
			l0.1,1.8h6.5v-23C231.7,59.7,219.1,59.7,219.1,59.7z M215.8,76.1c-1-1.2-1.5-2.7-1.5-4.6c0-4.3,1.9-6.5,5.8-6.5h5.2v10.7
			c-1.8,1.4-3.7,2.2-5.6,2.2C218.1,77.9,216.7,77.3,215.8,76.1z"/>
		<path d="M74.7,63.8v6h10.7v5.6c-3.2,0.8-6,1.2-8.4,1.2c-3,0-5.4-0.9-7.2-2.8c-1.8-1.9-2.7-4.4-2.7-7.4c0-3,1-5.4,3.1-7.2
			c2.1-1.8,4.8-2.7,8.1-2.7c1.3,0,3.6,0.3,6.9,0.8v-6.5c-2.5-0.4-4.9-0.6-7.4-0.6c-5.3,0-9.6,1.5-12.8,4.5c-3.2,3-4.8,7-4.8,11.9
			c0,5,1.5,9,4.6,12.1c3.1,3,7.2,4.6,12.2,4.6c4.2,0,9-1.1,14.6-3.4V63.8H74.7z"/>
		<path d="M122.9,63.8v6h10.7v5.6c-3.2,0.8-6,1.2-8.4,1.2c-3,0-5.4-0.9-7.2-2.8c-1.8-1.9-2.7-4.4-2.7-7.4c0-3,1-5.4,3.1-7.2
			c2.1-1.8,4.8-2.7,8.1-2.7c1.3,0,3.6,0.3,6.9,0.8v-6.5c-2.5-0.4-4.9-0.6-7.4-0.6c-5.3,0-9.6,1.5-12.8,4.5c-3.2,3-4.8,7-4.8,11.9
			c0,5,1.5,9,4.6,12.1c3.1,3,7.2,4.6,12.2,4.6c4.2,0,9-1.1,14.6-3.4V63.8H122.9z"/>
	</g>
	<g>
		<path class="st2" d="M112.5,98c0-0.3-0.1-0.6-0.3-0.8c-0.2-0.2-0.6-0.3-1.2-0.3c-0.3,0-0.5,0-0.7,0.1c-0.2,0-0.3,0.1-0.5,0.2
			c-0.1,0.1-0.2,0.2-0.2,0.3c-0.1,0.1-0.1,0.3-0.1,0.4v0.3c0,0.1,0,0.2,0.1,0.3c0,0.1,0.1,0.2,0.2,0.2c0.1,0.1,0.1,0.1,0.2,0.2
			c0.1,0,0.1,0.1,0.2,0.1l2,0.8c0.1,0.1,0.3,0.1,0.4,0.2c0.1,0.1,0.3,0.2,0.4,0.3c0.1,0.1,0.2,0.2,0.2,0.4c0.1,0.2,0.1,0.3,0.1,0.5
			v0.9c0,0.2,0,0.4-0.1,0.6c-0.1,0.2-0.2,0.4-0.4,0.5c-0.2,0.1-0.4,0.3-0.7,0.3c-0.3,0.1-0.7,0.1-1.1,0.1s-0.8,0-1.1-0.1
			c-0.3-0.1-0.5-0.2-0.7-0.3c-0.2-0.1-0.3-0.3-0.4-0.5c-0.1-0.2-0.1-0.4-0.1-0.6v-0.6c0-0.1,0.1-0.2,0.2-0.2h0.4
			c0.1,0,0.2,0.1,0.2,0.2v0.5c0,0.2,0,0.3,0.1,0.4s0.1,0.2,0.3,0.3c0.1,0.1,0.3,0.2,0.5,0.2s0.4,0.1,0.7,0.1c0.6,0,1-0.1,1.2-0.3
			c0.2-0.2,0.4-0.4,0.4-0.8v-0.7c0-0.1,0-0.3-0.1-0.4c-0.1-0.1-0.1-0.2-0.2-0.3s-0.2-0.1-0.3-0.2c-0.1-0.1-0.2-0.1-0.3-0.1l-1.9-0.7
			c-0.1,0-0.2-0.1-0.3-0.2c-0.1-0.1-0.2-0.2-0.3-0.3c-0.1-0.1-0.2-0.2-0.2-0.4c-0.1-0.1-0.1-0.3-0.1-0.5v-0.6c0-0.2,0-0.4,0.1-0.6
			c0.1-0.2,0.2-0.4,0.4-0.5c0.2-0.1,0.4-0.3,0.7-0.3s0.6-0.1,1.1-0.1s0.8,0,1.1,0.1s0.5,0.2,0.7,0.3c0.2,0.1,0.3,0.3,0.4,0.5
			c0.1,0.2,0.1,0.4,0.1,0.6v0.5c0,0.1-0.1,0.2-0.2,0.2h-0.4c-0.1,0-0.2-0.1-0.2-0.2V98z"/>
		<path class="st2" d="M116.9,103.6c0,0.1-0.1,0.2-0.2,0.2h-0.5c-0.1,0-0.2-0.1-0.2-0.2v-7c0-0.1,0.1-0.2,0.2-0.2h0.5
			c0.1,0,0.2,0.1,0.2,0.2V103.6z"/>
		<path class="st2" d="M120.7,100.8v2.8c0,0.1-0.1,0.2-0.2,0.2h-0.5c-0.1,0-0.2-0.1-0.2-0.2v-7c0-0.1,0-0.2,0.1-0.2h2.1
			c0.4,0,0.8,0,1.1,0.1c0.3,0.1,0.5,0.2,0.7,0.3c0.2,0.1,0.3,0.3,0.4,0.5c0.1,0.2,0.1,0.4,0.1,0.6v1.2c0,0.2,0,0.3-0.1,0.5
			s-0.1,0.3-0.2,0.4c-0.1,0.1-0.2,0.2-0.4,0.3c-0.2,0.1-0.4,0.2-0.6,0.2l1.4,2.9c0,0.1,0,0.1,0,0.1c0,0-0.1,0-0.1,0H124
			c-0.1,0-0.1,0-0.1,0c0,0,0-0.1-0.1-0.1l-1.3-2.8h-0.3H120.7z M120.7,97.1v3h1.5c0.6,0,1-0.1,1.2-0.3s0.4-0.4,0.4-0.8v-1
			c0-0.3-0.1-0.6-0.4-0.8c-0.2-0.2-0.6-0.3-1.2-0.3H120.7z"/>
		<path class="st2" d="M129,103.8c-0.1,0-0.2-0.1-0.2-0.2l-2.1-7c0-0.1,0-0.2,0.1-0.2h0.5c0.1,0,0.1,0,0.1,0c0,0,0,0.1,0.1,0.1
			l1.5,5.1c0,0.1,0.1,0.2,0.1,0.3c0,0.1,0,0.2,0.1,0.4s0,0.2,0.1,0.3c0,0.1,0,0.1,0,0.2c0,0,0-0.1,0-0.1c0-0.1,0-0.2,0.1-0.3
			c0-0.1,0.1-0.2,0.1-0.4c0-0.1,0.1-0.2,0.1-0.4l1.6-5.1c0-0.1,0.1-0.2,0.2-0.2h0.5c0.1,0,0.2,0.1,0.1,0.2l-2.2,7
			c0,0.1-0.1,0.2-0.2,0.2H129z"/>
		<path class="st2" d="M134.3,103.8c-0.1,0-0.1-0.1-0.1-0.2v-7c0-0.1,0.1-0.2,0.2-0.2h3.7c0.1,0,0.2,0.1,0.2,0.2v0.3
			c0,0.1-0.1,0.2-0.2,0.2h-3.1v2.5h2.9c0.1,0,0.2,0.1,0.2,0.2v0.3c0,0.1-0.1,0.2-0.2,0.2h-2.9v2.9h3.2c0.1,0,0.2,0.1,0.2,0.2v0.3
			c0,0.1-0.1,0.2-0.2,0.2H134.3z"/>
		<path class="st2" d="M141.5,103.6c0,0.1,0,0.2-0.2,0.2h-0.5c-0.1,0-0.2-0.1-0.2-0.2v-0.8c0-0.1,0.1-0.2,0.2-0.2h0.5
			c0.1,0,0.2,0.1,0.2,0.2V103.6z"/>
		<path class="st2" d="M148.6,103.6c0,0.1-0.1,0.2-0.2,0.2H148c-0.1,0-0.2-0.1-0.2-0.2v-7c0-0.1,0-0.2,0.2-0.2h0.5
			c0.1,0,0.2,0.1,0.2,0.2V103.6z"/>
		<path class="st2" d="M156.3,103.6c0,0.1-0.1,0.2-0.2,0.2h-0.4c-0.1,0-0.1,0-0.2-0.1l-2.9-5.1c-0.1-0.2-0.2-0.4-0.3-0.5
			c-0.1-0.1-0.1-0.2-0.1-0.2v5.7c0,0.1-0.1,0.2-0.2,0.2h-0.4c-0.1,0-0.2-0.1-0.2-0.2v-7c0-0.1,0.1-0.2,0.2-0.2h0.4
			c0.1,0,0.1,0,0.1,0.1l2.9,5.2c0,0,0,0.1,0.1,0.2c0,0.1,0.1,0.1,0.1,0.2c0,0.1,0.1,0.2,0.1,0.3v-5.7c0-0.1,0-0.2,0.2-0.2h0.4
			c0.1,0,0.2,0.1,0.2,0.2V103.6z"/>
		<path class="st2" d="M164,103.6c0,0.1-0.1,0.2-0.2,0.2h-0.4c-0.1,0-0.1,0-0.2-0.1l-2.9-5.1c-0.1-0.2-0.2-0.4-0.3-0.5
			c-0.1-0.1-0.1-0.2-0.1-0.2v5.7c0,0.1-0.1,0.2-0.2,0.2h-0.4c-0.1,0-0.2-0.1-0.2-0.2v-7c0-0.1,0.1-0.2,0.2-0.2h0.4
			c0.1,0,0.1,0,0.1,0.1l2.9,5.2c0,0,0.1,0.1,0.1,0.2c0,0.1,0.1,0.1,0.1,0.2c0,0.1,0.1,0.2,0.1,0.3v-5.7c0-0.1,0.1-0.2,0.2-0.2h0.4
			c0.1,0,0.2,0.1,0.2,0.2V103.6z"/>
		<path class="st2" d="M167,97.9c0-0.2,0-0.4,0.1-0.6c0.1-0.2,0.2-0.4,0.4-0.5c0.2-0.1,0.4-0.3,0.7-0.3s0.7-0.1,1.1-0.1
			c0.4,0,0.8,0,1.1,0.1s0.5,0.2,0.7,0.3c0.2,0.1,0.3,0.3,0.4,0.5c0.1,0.2,0.1,0.4,0.1,0.6v4.4c0,0.2,0,0.4-0.1,0.6
			c-0.1,0.2-0.2,0.4-0.4,0.5c-0.2,0.1-0.4,0.3-0.7,0.3c-0.3,0.1-0.7,0.1-1.1,0.1c-0.4,0-0.8,0-1.1-0.1c-0.3-0.1-0.5-0.2-0.7-0.3
			c-0.2-0.1-0.3-0.3-0.4-0.5c-0.1-0.2-0.1-0.4-0.1-0.6V97.9z M170.9,98.1c0-0.3-0.1-0.6-0.4-0.8s-0.6-0.3-1.2-0.3
			c-0.6,0-1,0.1-1.2,0.3s-0.4,0.4-0.4,0.8v4.1c0,0.3,0.1,0.6,0.4,0.8s0.6,0.3,1.2,0.3c0.6,0,1-0.1,1.2-0.3s0.4-0.4,0.4-0.8V98.1z"/>
		<path class="st2" d="M176.2,103.8c-0.1,0-0.2-0.1-0.2-0.2l-2.1-7c0-0.1,0-0.2,0.1-0.2h0.5c0.1,0,0.1,0,0.1,0c0,0,0,0.1,0.1,0.1
			l1.5,5.1c0,0.1,0.1,0.2,0.1,0.3c0,0.1,0,0.2,0.1,0.4s0,0.2,0.1,0.3c0,0.1,0,0.1,0,0.2c0,0,0-0.1,0-0.1c0-0.1,0-0.2,0.1-0.3
			c0-0.1,0.1-0.2,0.1-0.4c0-0.1,0.1-0.2,0.1-0.4l1.6-5.1c0-0.1,0.1-0.2,0.2-0.2h0.5c0.1,0,0.2,0.1,0.1,0.2l-2.2,7
			c0,0.1-0.1,0.2-0.2,0.2H176.2z"/>
		<path class="st2" d="M183.4,96.4c0.1,0,0.2,0.1,0.2,0.2l2.2,7c0,0.1,0,0.2-0.1,0.2h-0.5c-0.1,0-0.2-0.1-0.2-0.2l-0.6-1.9h-2.5
			l-0.6,1.9c0,0.1,0,0.1-0.1,0.1c0,0-0.1,0-0.1,0h-0.4c-0.1,0-0.2-0.1-0.1-0.2l2.1-7c0-0.1,0.1-0.2,0.2-0.2H183.4z M183.4,98.6
			c0-0.1-0.1-0.2-0.1-0.3c0-0.1-0.1-0.3-0.1-0.4c0-0.1,0-0.3-0.1-0.4c0-0.1,0-0.2,0-0.2c0,0,0,0.1,0,0.2c0,0.1,0,0.2-0.1,0.3
			S183,98,183,98.2s-0.1,0.3-0.1,0.4l-0.8,2.6h2.1L183.4,98.6z"/>
		<path class="st2" d="M188.7,103.6c0,0.1-0.1,0.2-0.2,0.2h-0.5c-0.1,0-0.2-0.1-0.2-0.2v-0.8c0-0.1,0.1-0.2,0.2-0.2h0.5
			c0.1,0,0.2,0.1,0.2,0.2V103.6z"/>
		<path class="st2" d="M195.8,103.6c0,0.1-0.1,0.2-0.2,0.2h-0.5c-0.1,0-0.2-0.1-0.2-0.2v-7c0-0.1,0-0.2,0.2-0.2h0.5
			c0.1,0,0.2,0.1,0.2,0.2V103.6z"/>
		<path class="st2" d="M203.5,103.6c0,0.1-0.1,0.2-0.2,0.2h-0.4c-0.1,0-0.1,0-0.2-0.1l-2.9-5.1c-0.1-0.2-0.2-0.4-0.3-0.5
			c-0.1-0.1-0.1-0.2-0.1-0.2v5.7c0,0.1-0.1,0.2-0.2,0.2H199c-0.1,0-0.2-0.1-0.2-0.2v-7c0-0.1,0.1-0.2,0.2-0.2h0.4
			c0.1,0,0.1,0,0.1,0.1l2.9,5.2c0,0,0,0.1,0.1,0.2c0,0.1,0.1,0.1,0.1,0.2c0,0.1,0.1,0.2,0.1,0.3v-5.7c0-0.1,0-0.2,0.2-0.2h0.4
			c0.1,0,0.2,0.1,0.2,0.2V103.6z"/>
		<path class="st2" d="M210.2,98c0-0.3-0.1-0.6-0.3-0.8c-0.2-0.2-0.6-0.3-1.2-0.3c-0.3,0-0.5,0-0.7,0.1c-0.2,0-0.3,0.1-0.5,0.2
			c-0.1,0.1-0.2,0.2-0.2,0.3c-0.1,0.1-0.1,0.3-0.1,0.4v0.3c0,0.1,0,0.2,0.1,0.3c0,0.1,0.1,0.2,0.2,0.2c0.1,0.1,0.1,0.1,0.2,0.2
			c0.1,0,0.1,0.1,0.2,0.1l2,0.8c0.1,0.1,0.3,0.1,0.4,0.2c0.1,0.1,0.3,0.2,0.4,0.3c0.1,0.1,0.2,0.2,0.2,0.4c0.1,0.2,0.1,0.3,0.1,0.5
			v0.9c0,0.2,0,0.4-0.1,0.6c-0.1,0.2-0.2,0.4-0.4,0.5c-0.2,0.1-0.4,0.3-0.7,0.3c-0.3,0.1-0.7,0.1-1.1,0.1s-0.8,0-1.1-0.1
			c-0.3-0.1-0.5-0.2-0.7-0.3c-0.2-0.1-0.3-0.3-0.4-0.5c-0.1-0.2-0.1-0.4-0.1-0.6v-0.6c0-0.1,0.1-0.2,0.2-0.2h0.4
			c0.1,0,0.2,0.1,0.2,0.2v0.5c0,0.2,0,0.3,0.1,0.4c0.1,0.1,0.1,0.2,0.3,0.3c0.1,0.1,0.3,0.2,0.5,0.2s0.4,0.1,0.7,0.1
			c0.6,0,1-0.1,1.2-0.3c0.2-0.2,0.4-0.4,0.4-0.8v-0.7c0-0.1,0-0.3-0.1-0.4c-0.1-0.1-0.1-0.2-0.2-0.3c-0.1-0.1-0.2-0.1-0.3-0.2
			c-0.1-0.1-0.2-0.1-0.3-0.1l-1.9-0.7c-0.1,0-0.2-0.1-0.3-0.2s-0.2-0.2-0.3-0.3c-0.1-0.1-0.2-0.2-0.2-0.4c-0.1-0.1-0.1-0.3-0.1-0.5
			v-0.6c0-0.2,0-0.4,0.1-0.6c0.1-0.2,0.2-0.4,0.4-0.5c0.2-0.1,0.4-0.3,0.7-0.3s0.6-0.1,1.1-0.1c0.4,0,0.8,0,1.1,0.1
			c0.3,0.1,0.5,0.2,0.7,0.3c0.2,0.1,0.3,0.3,0.4,0.5c0.1,0.2,0.1,0.4,0.1,0.6v0.5c0,0.1-0.1,0.2-0.2,0.2h-0.4
			c-0.1,0-0.2-0.1-0.2-0.2V98z"/>
		<path class="st2" d="M214.5,101v2.7c0,0.1-0.1,0.2-0.2,0.2h-0.5c-0.1,0-0.2-0.1-0.2-0.2v-7c0-0.1,0-0.2,0.1-0.2h2.1
			c0.4,0,0.8,0,1.1,0.1c0.3,0.1,0.5,0.2,0.7,0.3c0.2,0.1,0.3,0.3,0.4,0.5c0.1,0.2,0.1,0.4,0.1,0.6v1.4c0,0.2,0,0.4-0.1,0.6
			c-0.1,0.2-0.2,0.4-0.4,0.5s-0.4,0.3-0.7,0.3c-0.3,0.1-0.7,0.1-1.1,0.1H214.5z M214.5,97.1v3.2h1.5c0.6,0,1-0.1,1.2-0.3
			c0.2-0.2,0.4-0.4,0.4-0.8v-1.1c0-0.3-0.1-0.6-0.4-0.8c-0.2-0.2-0.6-0.3-1.2-0.3H214.5z"/>
		<path class="st2" d="M221.7,103.6c0,0.1,0,0.2-0.2,0.2h-0.5c-0.1,0-0.2-0.1-0.2-0.2v-7c0-0.1,0.1-0.2,0.2-0.2h0.5
			c0.1,0,0.2,0.1,0.2,0.2V103.6z"/>
		<path class="st2" d="M225.5,100.8v2.8c0,0.1-0.1,0.2-0.2,0.2h-0.5c-0.1,0-0.2-0.1-0.2-0.2v-7c0-0.1,0-0.2,0.1-0.2h2.1
			c0.4,0,0.8,0,1.1,0.1c0.3,0.1,0.5,0.2,0.7,0.3c0.2,0.1,0.3,0.3,0.4,0.5c0.1,0.2,0.1,0.4,0.1,0.6v1.2c0,0.2,0,0.3-0.1,0.5
			s-0.1,0.3-0.2,0.4c-0.1,0.1-0.2,0.2-0.4,0.3c-0.2,0.1-0.4,0.2-0.6,0.2l1.4,2.9c0,0.1,0,0.1,0,0.1c0,0-0.1,0-0.1,0h-0.5
			c-0.1,0-0.1,0-0.1,0c0,0,0-0.1-0.1-0.1l-1.3-2.8H227H225.5z M225.5,97.1v3h1.5c0.6,0,1-0.1,1.2-0.3s0.4-0.4,0.4-0.8v-1
			c0-0.3-0.1-0.6-0.4-0.8c-0.2-0.2-0.6-0.3-1.2-0.3H225.5z"/>
		<path class="st2" d="M234.3,96.4c0.1,0,0.2,0.1,0.2,0.2l2.2,7c0,0.1,0,0.2-0.1,0.2h-0.5c-0.1,0-0.2-0.1-0.2-0.2l-0.6-1.9h-2.5
			l-0.6,1.9c0,0.1,0,0.1-0.1,0.1c0,0-0.1,0-0.1,0h-0.4c-0.1,0-0.2-0.1-0.1-0.2l2.1-7c0-0.1,0.1-0.2,0.2-0.2H234.3z M234.3,98.6
			c0-0.1-0.1-0.2-0.1-0.3c0-0.1-0.1-0.3-0.1-0.4c0-0.1,0-0.3-0.1-0.4c0-0.1,0-0.2,0-0.2c0,0,0,0.1,0,0.2c0,0.1,0,0.2-0.1,0.3
			s-0.1,0.3-0.1,0.4s-0.1,0.3-0.1,0.4l-0.8,2.6h2.1L234.3,98.6z"/>
		<path class="st2" d="M239.6,103.6c0,0.1,0,0.2-0.2,0.2h-0.5c-0.1,0-0.2-0.1-0.2-0.2v-0.8c0-0.1,0.1-0.2,0.2-0.2h0.5
			c0.1,0,0.2,0.1,0.2,0.2V103.6z"/>
	</g>
</g>
</svg>
